HIERARCHY
ROOT root
{
	OFFSET 0.000000 0.000000 0.000000
	CHANNELS 6 Xposition Yposition Zposition Zrotation Yrotation Xrotation
	JOINT lhip
	{
		OFFSET 0.058581 -0.082280 -0.017664
		CHANNELS 3 Zrotation Yrotation Xrotation
		JOINT lknee
		{
			OFFSET 0.043451 -0.386469 0.008037
			CHANNELS 3 Zrotation Yrotation Xrotation
			JOINT lankle
			{
				OFFSET -0.014790 -0.426874 -0.037428
				CHANNELS 3 Zrotation Yrotation Xrotation
				JOINT ltoe
				{
					OFFSET 0.041054 -0.060286 0.122042
					CHANNELS 3 Zrotation Yrotation Xrotation
					End Site
					{
						OFFSET 0.000000 0.000000 0.000000
					}
				}
			}
		}
	}
	JOINT rhip
	{
		OFFSET -0.060310 -0.090513 -0.013543
		CHANNELS 3 Zrotation Yrotation Xrotation
		JOINT rknee
		{
			OFFSET -0.043257 -0.383688 -0.004843
			CHANNELS 3 Zrotation Yrotation Xrotation
			JOINT rankle
			{
				OFFSET 0.019056 -0.420046 -0.034562
				CHANNELS 3 Zrotation Yrotation Xrotation
				JOINT rtoe
				{
					OFFSET -0.034840 -0.062106 0.130323
					CHANNELS 3 Zrotation Yrotation Xrotation
					End Site
					{
						OFFSET 0.000000 0.000000 0.000000
					}
				}
			}
		}
	}
	JOINT lowerback
	{
		OFFSET 0.004439 0.124404 -0.038385
		CHANNELS 3 Zrotation Yrotation Xrotation
		JOINT upperback
		{
			OFFSET 0.004488 0.137956 0.026820
			CHANNELS 3 Zrotation Yrotation Xrotation
			JOINT chest
			{
				OFFSET -0.002265 0.056032 0.002855
				CHANNELS 3 Zrotation Yrotation Xrotation
				JOINT lowerneck
				{
					OFFSET -0.013390 0.211636 -0.033468
					CHANNELS 3 Zrotation Yrotation Xrotation
					JOINT upperneck
					{
						OFFSET 0.010113 0.088937 0.050410
						CHANNELS 3 Zrotation Yrotation Xrotation
						End Site
						{
							OFFSET 0.000000 0.000000 0.000000
						}
					}
				}
				JOINT lclavicle
				{
					OFFSET 0.071702 0.114000 -0.018898
					CHANNELS 3 Zrotation Yrotation Xrotation
					JOINT lshoulder
					{
						OFFSET 0.122921 0.045205 -0.019046
						CHANNELS 3 Zrotation Yrotation Xrotation
						JOINT lelbow
						{
							OFFSET 0.255332 -0.015649 -0.022946
							CHANNELS 3 Zrotation Yrotation Xrotation
							JOINT lwrist
							{
								OFFSET 0.265709 0.012698 -0.007375
								CHANNELS 3 Zrotation Yrotation Xrotation
								End Site
								{
									OFFSET 0.000000 0.000000 0.000000
								}
							}
						}
					}
				}
				JOINT rclavicle
				{
					OFFSET -0.082954 0.112472 -0.023707
					CHANNELS 3 Zrotation Yrotation Xrotation
					JOINT rshoulder
					{
						OFFSET -0.113228 0.046853 -0.008472
						CHANNELS 3 Zrotation Yrotation Xrotation
						JOINT relbow
						{
							OFFSET -0.260127 -0.014369 -0.031269
							CHANNELS 3 Zrotation Yrotation Xrotation
							JOINT rwrist
							{
								OFFSET -0.269108 0.006794 -0.006027
								CHANNELS 3 Zrotation Yrotation Xrotation
								End Site
								{
									OFFSET 0.000000 0.000000 0.000000
								}
							}
						}
					}
				}
			}
		}
	}
}
MOTION
Frames: 6
Frame Time: 0.033333
0.033651 1.920930 0.980778 -17.978939 0.566554 88.014014 5.476695 6.417339 3.463910 -2.779621 5.102432 3.827165 3.058679 13.415645 -13.128409 0.000000 -0.000000 0.000000 -5.424252 -5.790308 -1.193563 1.725562 -6.761070 8.656379 2.139150 -6.885138 -10.186131 0.000000 -0.000000 0.000000 -0.164531 0.985315 1.936192 1.562714 -2.679854 7.961559 -0.755936 -2.245290 0.524056 4.012295 -5.858964 0.387597 3.886131 -10.574474 -2.981052 -30.762966 0.788193 3.256512 -58.186405 -1.424195 12.574013 11.508920 -29.624010 1.182461 -2.632737 -9.105259 4.078922 27.849819 3.339749 2.033311 57.341676 1.115121 11.177564 -14.709172 30.962919 -4.375812 1.727061 7.743787 1.406925 
0.033192 1.921273 0.980608 -17.836703 0.595944 88.019751 5.532826 6.257888 3.291116 -2.771135 5.020102 4.050861 3.078876 13.524003 -13.190946 0.000000 -0.000000 0.000000 -5.380984 -5.793671 -1.392511 1.761587 -6.660791 9.037634 2.199257 -7.064238 -10.366835 0.000000 -0.000000 0.000000 -0.044895 0.913055 2.151264 1.452487 -2.740268 7.832623 -0.666515 -2.395885 0.636396 3.883196 -5.219000 0.388393 3.167085 -9.633560 -2.295680 -30.647166 0.726867 3.165477 -58.414774 -1.790492 12.692558 11.253024 -29.573198 1.342371 -2.273902 -9.201637 3.766353 27.704542 3.403040 2.218489 57.519812 1.318796 11.345913 -14.844516 30.763820 -4.390737 1.734458 7.580227 1.266206 
0.032532 1.921141 0.980475 -17.825486 0.539026 88.019514 5.541675 6.146888 3.181357 -2.832431 5.111189 4.322486 3.090444 13.551785 -13.366157 0.000000 -0.000000 0.000000 -5.459803 -5.776910 -1.670876 1.824086 -6.678880 9.603904 2.220876 -7.027413 -10.658343 0.000000 -0.000000 0.000000 -0.077148 0.828638 2.183751 1.359646 -2.773551 7.842298 -0.711141 -2.453921 0.917213 3.921978 -3.623880 0.086959 2.804779 -8.256140 -1.818240 -30.538468 0.532109 3.244012 -58.514014 -2.014159 12.523909 11.306747 -29.936105 1.422692 -2.337078 -9.441816 3.597437 27.871089 3.503784 2.445164 57.506686 1.661366 11.351776 -14.873620 30.464989 -4.406690 1.823341 7.457453 1.245044 
0.031496 1.920958 0.980542 -17.931268 0.526540 88.052644 5.640582 6.159636 3.049495 -2.985398 4.953360 4.625975 3.158449 13.804901 -13.529969 0.000000 -0.000000 0.000000 -5.410736 -5.594794 -2.135650 1.765552 -6.599256 10.451848 2.219369 -7.146776 -11.090150 0.000000 -0.000000 0.000000 -0.045813 0.669003 2.913026 1.240904 -2.698214 7.238954 -0.704569 -2.405580 0.688549 3.641799 -2.728372 0.394984 2.231229 -6.467196 -0.958339 -30.537357 0.734343 3.202132 -58.562168 -1.881557 12.720299 11.268425 -30.569520 1.844723 -1.968126 -9.322613 3.405327 27.940559 3.244602 2.556577 57.563488 1.491110 11.529219 -14.717882 30.204687 -4.078906 1.898183 7.446301 1.300325 
0.030770 1.920365 0.980600 -18.075400 0.460867 87.904369 5.611770 6.046632 3.158840 -3.023562 4.913618 4.892720 3.330230 14.039138 -13.745781 0.000000 -0.000000 0.000000 -5.472736 -5.477106 -2.178673 1.751192 -6.524186 10.912091 2.101839 -7.119401 -11.334208 0.000000 -0.000000 0.000000 -0.118399 0.646440 3.178881 1.198924 -2.653264 7.271341 -0.677537 -2.399113 0.737234 3.527461 -2.130271 0.388353 1.959492 -5.545988 -0.695468 -30.576934 0.573686 3.186054 -58.535775 -1.949044 12.692911 11.211120 -30.775866 1.710112 -1.649498 -9.156583 3.190127 28.009151 3.246471 2.698811 57.563778 1.581554 11.548732 -14.711701 30.051031 -4.076042 1.948586 7.460150 1.227725 
0.030086 1.919800 0.980226 -18.050275 0.428683 87.969221 5.665912 6.085298 2.920546 -3.110646 4.893598 5.336913 3.338534 14.071814 -13.938491 0.000000 -0.000000 0.000000 -5.559628 -5.498001 -2.478742 1.856964 -6.650176 11.453360 2.098157 -7.138350 -11.762725 0.000000 -0.000000 0.000000 -0.150302 0.613881 3.314501 1.203094 -2.688997 7.386471 -0.699891 -2.426021 0.821560 3.494894 -1.213813 0.292347 1.612992 -4.700571 -0.308367 -30.442651 0.473498 3.172536 -58.630806 -2.150297 12.741416 11.137935 -31.200221 1.948898 -1.203246 -9.158286 3.321556 27.920413 3.192010 2.756773 57.667493 1.609036 11.586063 -14.686769 29.913916 -3.923782 1.903422 7.452374 1.273862 
